<?xml version="1.0" encoding="utf-8"?>
<svg width="805.04004" height="651.24669" xmlns="http://www.w3.org/2000/svg">
  <g>
    <title>Layer 1</title>
    <g id="svg_2">
      <polygon id="svg_3" fill="#ffb6b6" points="241.17251 640.85807 256.4246 640.85658 263.68011 582.02643 241.16945 582.02801 241.17251 640.85807"/>
      <path id="svg_4" d="m293.42808,640.51208l0,0c0.4749,0.79982 0.72548,3.38126 0.72548,4.31137l0,0c0,2.85894 -2.31759,5.17662 -5.17662,5.17662l-47.23394,0c-1.95035,0 -3.53151,-1.58107 -3.53151,-3.53151l0,-1.9665s-2.33662,-5.91036 2.47406,-13.19519c0,0 5.97903,5.70414 14.91325,-3.23007l2.63462,-4.77281l19.07102,13.94758l10.57078,1.30116c2.31267,0.28464 4.36307,-0.04418 5.55268,1.95935l0.00019,0l-0.00001,0z" style="fill: rgb(83, 83, 83);"/>
    </g>
    <g id="svg_5">
      <polygon id="svg_6" points="325.17251 640.85807 340.4246 640.85658 347.68011 582.02643 325.16945 582.02801 325.17251 640.85807" fill="#ffb6b6"/>
      <path id="svg_7" d="m377.42808,640.51208l0,0c0.4749,0.79982 0.72548,3.38126 0.72548,4.31137l0,0c0,2.85894 -2.31759,5.17662 -5.17662,5.17662l-47.23394,0c-1.95035,0 -3.53151,-1.58107 -3.53151,-3.53151l0,-1.9665s-2.33662,-5.91036 2.47406,-13.19519c0,0 5.97903,5.70414 14.91325,-3.23007l2.63462,-4.77281l19.07102,13.94758l10.57078,1.30116c2.31267,0.28464 4.36307,-0.04418 5.55268,1.95935l0.00019,0l-0.00001,0z" style="fill: rgb(83, 83, 83);"/>
    </g>
    <path id="svg_8" fill="#ffb6b6" d="m319.04527,172.54728s17.56693,-8 28.78346,0s21.21654,80 9.21654,92c-12,12 -32,-15 -32,-15l-6,-77z"/>
    <path id="svg_9" fill="#ffb6b6" d="m252.65354,173.5s-17.56693,-8 -28.78346,0s-21.21654,80 -9.21654,92s32,-15 32,-15l6,-77z"/>
    <path id="svg_10" fill="#ffb6b6" d="m253.15354,262s-6,27 -13,39l51,30l40,-26s-19,-31 -16,-40l-62,-3z"/>
    <g id="svg_11">
      <polygon id="svg_12" fill="#ffb6b6" points="600.62661 637.85995 581.03981 637.85804 571.72225 562.30808 600.63055 562.31011 600.62661 637.85995"/>
      <path id="svg_13" d="m533.51976,637.41563l0,0c-0.60986,1.02713 -0.93166,4.34223 -0.93166,5.53669l0,0c0,3.67146 2.97626,6.64784 6.64784,6.64784l60.65805,0c2.50465,0 4.53519,-2.03042 4.53519,-4.53519l0,-2.52539s3.00069,-7.59011 -3.1772,-16.94533c0,0 -7.6783,7.32528 -19.15166,-4.14808l-3.38339,-6.12927l-24.4911,17.91155l-13.57505,1.67096c-2.96994,0.36554 -5.60307,-0.05673 -7.13077,2.51621l-0.00024,0l-0.00001,0.00001z" style="fill: rgb(83, 83, 83);"/>
    </g>
    <g id="svg_14">
      <polygon id="svg_15" fill="#ffb6b6" points="661.17138 637.85995 641.58458 637.85804 632.26702 562.30808 661.17531 562.31011 661.17138 637.85995"/>
      <path id="svg_16" d="m594.06453,637.41563l0,0c-0.60986,1.02713 -0.93166,4.34223 -0.93166,5.53669l0,0c0,3.67146 2.97626,6.64784 6.64784,6.64784l60.65805,0c2.50465,0 4.53519,-2.03042 4.53519,-4.53519l0,-2.52539s3.00069,-7.59011 -3.1772,-16.94533c0,0 -7.6783,7.32528 -19.15166,-4.14808l-3.38339,-6.12927l-24.4911,17.91155l-13.57505,1.67096c-2.96994,0.36554 -5.60307,-0.05673 -7.13077,2.51621l-0.00024,0l-0.00001,0.00001z" style="fill: rgb(83, 83, 83);"/>
    </g>
    <g id="svg_17">
      <path id="svg_18" fill="#ffb6b6" d="m559.87774,202.03374s-2.8368,18.25975 0.44853,30.04219l-48.24223,85.54714l18.76617,13.67763l62.67044,-78.85065l8.68465,-38.9589l-42.32756,-11.45741z"/>
      <ellipse id="svg_19" transform="rotate(-60.5802 -31.019 619.514)" fill="#ffb6b6" ry="15.13619" rx="24.50622" cy="955.82318" cx="483.76725"/>
    </g>
    <path id="svg_20" d="m578.69796,289.07025s-23.06467,16.27694 -15.13619,40.57317l-6.48694,81.95791l14.41542,168.66042l31.04991,0l4.98864,-121.08954l20.18159,-76.40173l2.61634,197.49127l38.46761,-0.72077s2.16231,-98.74563 -0.72077,-104.5118c-2.88308,-5.76617 0,-1.14075 0,-1.14075l23.78544,-115.64119l-3.60386,-79.26779l-109.5572,10.09079l0.00001,0.00001z" style="fill: rgb(83, 83, 83);"/>
    <polygon id="svg_21" fill="#1b9cfc" points="635.63888 87.97513 593.83416 103.83209 598.15878 115.36443 563.56177 141.31219 586.62645 222.03854 573.65257 294.11565 611.13266 292.67411 691.85902 285.4664 683.20977 197.53233 684.65131 112.48135 652.93738 100.94901 635.63888 87.97513"/>
    <path id="svg_22" fill="#1b9cfc" d="m574.37334,139.14987l-10.81157,2.16231s-5.0454,3.60386 -5.0454,16.57773s0,21.62313 1.44154,28.83084c0,0 -8.64925,23.06467 -5.76617,28.83084c2.88308,5.76617 38.92164,5.76617 38.92164,5.76617l-18.74005,-82.1679l0.00001,0.00001z"/>
    <path id="svg_23" fill="#ffb6b6" d="m633.94762,54.52454c0,18.14827 -14.71208,32.86035 -32.86035,32.86035c-18.14827,0 -32.86035,-14.71208 -32.86035,-32.86035c0,-18.14827 14.71208,-32.86035 32.86035,-32.86035s32.86035,14.71208 32.86035,32.86035z"/>
    <path id="svg_24" d="m621.62253,77.40612s5.82133,-22.36488 -0.38166,-18.42126l-9.62679,-0.9148l6.07816,-16.25953s-10.8813,-8.15741 -15.21991,-3.38904c-4.33861,4.76837 -3.29898,7.45749 -7.24261,1.2545s-12.1839,-6.08574 -19.73144,-1.6223c-7.54754,4.46343 -13.44559,5.19813 -12.01098,-3.08411c1.43461,-8.28223 0.63035,-22.3556 5.11118,-20.75956c4.48084,1.59603 3.25239,2.49689 5.66857,-3.28675s2.72112,-8.99257 8.31423,-6.51833s19.64857,-9.14175 25.45656,-2.11402c5.80799,7.02773 10.8813,8.15741 15.9546,9.28709s25.45656,-2.11402 23.75179,29.45547c0,0 13.60518,27.19611 -10.90181,39.76167c0,0 -6.65081,-6.56349 -11.29436,1.41381l-3.92555,-4.80284l0.00002,0z" style="fill: rgb(255, 255, 130);"/>
    <path id="svg_25" d="m306.15354,148l-32,1l-17,21l-19,4s-6,56 3,76s5,26 5,26l72,-1s-2,-13.58268 10,-25.29134l6.01784,-22.27074c3.21745,-11.90708 2.12131,-24.5683 -3.09461,-35.74527l-12.92323,-27.69264l-11,-4l-1,-12l0,-0.00001z" style="fill: rgb(83, 83, 83);"/>
    <path id="svg_26" d="m246.15354,288l-4.5,7.5s-14,19 -16,73s14.5,228.73622 14.5,228.73622l22.83465,0l24.68576,-236.40945l32.97959,236.67323l29.5,0.5l-2.5,-241.5s-6,-55 -22,-67c0,0 -51.5,46.5 -79.5,-1.5z" style="fill: rgb(83, 83, 83);"/>
    <g id="svg_27">
      <path id="svg_28" fill="#1b9cfc" d="m204.50705,169.53298c0,10.3817 -0.62537,18.10648 -11.96219,18.79773c-10.64788,0.64924 -11.96219,-8.41603 -11.96219,-18.79773s0.24795,-18.71364 11.96219,-18.79773c13.33682,-0.09574 11.96219,8.41603 11.96219,18.79773z"/>
      <path id="svg_29" fill="#1b9cfc" d="m271.15354,169.53298c0,10.3817 2.72814,18.10653 -11.96219,18.79773c-11.30138,0.53174 -11.96219,-8.41603 -11.96219,-18.79773s1.66011,-17.63281 11.96219,-18.79773c9.69033,-1.09574 11.96219,8.41603 11.96219,18.79773z"/>
      <rect id="svg_30" fill="#1b9cfc" height="15.37996" width="66.64649" y="160.98856" x="194.25374"/>
    </g>
    <g id="svg_31">
      <path id="svg_32" fill="#1b9cfc" d="m319.50705,166.53298c0,10.3817 -0.62537,18.10648 -11.96219,18.79773c-10.64788,0.64924 -11.96219,-8.41603 -11.96219,-18.79773s0.24795,-18.71364 11.96219,-18.79773c13.33682,-0.09574 11.96219,8.41603 11.96219,18.79773z"/>
      <path id="svg_33" fill="#1b9cfc" d="m386.15354,166.53298c0,10.3817 2.72814,18.10653 -11.96219,18.79773c-11.30138,0.53174 -11.96219,-8.41603 -11.96219,-18.79773s1.66011,-17.63281 11.96219,-18.79773c9.69033,-1.09574 11.96219,8.41603 11.96219,18.79773z"/>
      <rect id="svg_34" fill="#1b9cfc" height="15.37996" width="66.64649" y="157.98856" x="309.25374"/>
    </g>
    <g id="svg_35">
      <path id="svg_36" fill="#1b9cfc" d="m493.50705,330.53298c0,10.3817 -0.62537,18.10648 -11.96219,18.79773c-10.64788,0.64924 -11.96219,-8.41603 -11.96219,-18.79773s0.24795,-18.71364 11.96219,-18.79773c13.33682,-0.09574 11.96219,8.41603 11.96219,18.79773z"/>
      <path id="svg_37" fill="#1b9cfc" d="m560.15354,330.53298c0,10.3817 2.72814,18.10653 -11.96219,18.79773c-11.30138,0.53174 -11.96219,-8.41603 -11.96219,-18.79773s1.66011,-17.63281 11.96219,-18.79773c9.69033,-1.09574 11.96219,8.41603 11.96219,18.79773z"/>
      <rect id="svg_38" fill="#1b9cfc" height="15.37996" width="66.64649" y="321.98856" x="483.25374"/>
    </g>
    <ellipse id="svg_39" fill="#ffb6b6" ry="21.03551" rx="12.99252" cy="169.11815" cx="343.08857"/>
    <circle id="svg_40" fill="#ffb6b6" r="35.5" cy="100.5" cx="281.65354"/>
    <path id="svg_41" d="m274.52614,111.65484l8.21357,-13.0713l3.69905,-17.77667s37.41739,9.12619 27.37858,-9.12619c-10.03881,-18.25239 -35.59215,-22.81548 -52.93192,-9.12619l-7.47342,7.30095s16.59961,-15.51453 6.5608,-20.99025c-10.03881,-5.47572 -8.21357,-9.12619 -13.68929,-4.5631c-5.47572,4.5631 -2.73786,8.21357 -9.12619,5.47572c-6.38834,-2.73786 -20.07763,-6.38834 -18.25239,-1.82524s-11.9431,16.42715 -6.88417,21.90286s0.49583,16.42715 9.62203,13.68929c9.12619,-2.73786 4.5631,10.95143 12.77667,5.47572c0,0 -6.74164,8.59122 -1.26592,14.97955s13.91262,8.87381 13,18s21,11 21,11l-1.70502,-26.63978s5.42715,-4.44956 9.07763,5.29463l-0.00001,0z" style="fill: rgb(255, 255, 130);"/>
    <g id="svg_42">
      <path id="svg_43" fill="#ffb6b6" d="m635.952,172.91127s-5.23404,17.72205 -3.54078,29.83617l-59.1644,78.39133l16.78586,16.04623l72.57675,-69.83999l13.77611,-37.46248l-40.43354,-16.97125l0,-0.00001z"/>
      <ellipse id="svg_44" transform="rotate(-52.957 -11.4754 576.998)" fill="#ffb6b6" ry="15.13619" rx="24.50622" cy="877.01627" cx="561.97095"/>
    </g>
    <path id="svg_45" fill="#1b9cfc" d="m678.82781,107.74546s18.43162,6.68681 16.08684,19.36535c-2.34478,12.67854 -3.23496,21.03684 -3.23496,21.03684c0,0 1.99724,6.92547 -0.60797,10.37731s-15.98067,43.92576 -15.98067,43.92576l-48.10713,-16.44165s28.20184,-78.04673 51.8439,-78.26361l-0.00001,0z"/>
    <path id="svg_47" fill="#ffb6b6" d="m241.60275,170.07087c0,11.61759 -5.81695,21.03551 -12.99252,21.03551c-7.17557,0 -12.99252,-9.41792 -12.99252,-21.03551c0,-11.61759 5.81695,-21.03551 12.99252,-21.03551s12.99252,9.41792 12.99252,21.03551z"/>
  </g>
</svg>